<svg xmlns="http://www.w3.org/2000/svg" viewBox="0 0 200 200">
  <rect width="200" height="200" rx="30" fill="#242E58"/>
  <g fill="#E4A62B">
    <path d="M110,58 C136,50 158,54 176,68 C171,72 166,74 160,74 C140,68 120,72 104,82 C104,74 106,64 110,58 Z"/>
    <path d="M90,58 C64,50 42,54 24,68 C29,72 34,74 40,74 C60,68 80,72 96,82 C96,74 94,64 90,58 Z"/>
    <path d="M100,46 L106,60 L94,60 Z"/>
    <path d="M90,60 L95,128 Q95,131 98,131 L102,131 Q105,131 105,128 L110,60 Z"/>
    <path d="M34,101 Q60,85 86,101 Q60,117 34,101 Z" transform="rotate(-6 60 101)"/>
    <path d="M114,101 Q140,85 166,101 Q140,117 114,101 Z" transform="rotate(6 140 101)"/>
    <rect x="72" y="139" width="56" height="16" rx="8"/>
  </g>
</svg>
